<mxfile host="app.diagrams.net" modified="2024-07-07T10:05:49.738Z" agent="Mozilla/5.0 (Windows NT 10.0; Win64; x64) AppleWebKit/537.36 (KHTML, like Gecko) Chrome/126.0.0.0 Safari/537.36 Edg/126.0.0.0" etag="PKP6aoq9LXgn9cwMB_MR" version="24.6.4" type="github">
  <diagram id="C5RBs43oDa-KdzZeNtuy" name="Page-1">
    <mxGraphModel dx="1239" dy="615" grid="0" gridSize="10" guides="1" tooltips="1" connect="1" arrows="1" fold="1" page="0" pageScale="1" pageWidth="827" pageHeight="1169" math="0" shadow="0">
      <root>
        <mxCell id="WIyWlLk6GJQsqaUBKTNV-0" />
        <mxCell id="WIyWlLk6GJQsqaUBKTNV-1" parent="WIyWlLk6GJQsqaUBKTNV-0" />
        <mxCell id="1NbmmqPmAqIWwFa_HTDq-12" value="" style="shape=folder;fontStyle=1;spacingTop=10;tabWidth=64;tabHeight=24;tabPosition=left;html=1;whiteSpace=wrap;" vertex="1" parent="WIyWlLk6GJQsqaUBKTNV-1">
          <mxGeometry x="1112" y="903" width="158" height="145" as="geometry" />
        </mxCell>
        <mxCell id="1NbmmqPmAqIWwFa_HTDq-17" value="" style="group" vertex="1" connectable="0" parent="WIyWlLk6GJQsqaUBKTNV-1">
          <mxGeometry x="908" y="891" width="218" height="155" as="geometry" />
        </mxCell>
        <mxCell id="1NbmmqPmAqIWwFa_HTDq-9" value="" style="shape=folder;fontStyle=1;spacingTop=10;tabWidth=47;tabHeight=24;tabPosition=left;html=1;whiteSpace=wrap;" vertex="1" parent="1NbmmqPmAqIWwFa_HTDq-17">
          <mxGeometry x="7" width="158" height="155" as="geometry" />
        </mxCell>
        <mxCell id="1NbmmqPmAqIWwFa_HTDq-10" value="&lt;p style=&quot;margin:0px;margin-top:4px;text-align:center;&quot;&gt;&lt;b&gt;Book&lt;/b&gt;&lt;/p&gt;&lt;hr size=&quot;1&quot; style=&quot;border-style:solid;&quot;&gt;&lt;p style=&quot;margin:0px;margin-left:4px;&quot;&gt;&amp;nbsp;+title&lt;/p&gt;&lt;p style=&quot;margin:0px;margin-left:4px;&quot;&gt;&amp;nbsp;+author&lt;/p&gt;&lt;p style=&quot;margin:0px;margin-left:4px;&quot;&gt;&amp;nbsp;+isbn&lt;/p&gt;&lt;p style=&quot;margin:0px;margin-left:4px;&quot;&gt;&amp;nbsp;+availability&lt;/p&gt;&lt;hr size=&quot;1&quot; style=&quot;border-style:solid;&quot;&gt;&lt;p style=&quot;margin:0px;margin-left:4px;&quot;&gt;&lt;br&gt;&lt;/p&gt;" style="verticalAlign=top;align=left;overflow=fill;html=1;whiteSpace=wrap;" vertex="1" parent="1NbmmqPmAqIWwFa_HTDq-17">
          <mxGeometry x="32" y="38" width="109" height="104" as="geometry" />
        </mxCell>
        <mxCell id="1NbmmqPmAqIWwFa_HTDq-11" value="Generic" style="text;html=1;align=center;verticalAlign=middle;resizable=0;points=[];autosize=1;strokeColor=none;fillColor=none;" vertex="1" parent="1NbmmqPmAqIWwFa_HTDq-17">
          <mxGeometry width="60" height="26" as="geometry" />
        </mxCell>
        <mxCell id="zkfFHV4jXpPFQw0GAbJ--0" value="Person" style="swimlane;fontStyle=2;align=center;verticalAlign=top;childLayout=stackLayout;horizontal=1;startSize=26;horizontalStack=0;resizeParent=1;resizeLast=0;collapsible=1;marginBottom=0;rounded=0;shadow=0;strokeWidth=1;" parent="WIyWlLk6GJQsqaUBKTNV-1" vertex="1">
          <mxGeometry x="220" y="120" width="160" height="138" as="geometry">
            <mxRectangle x="230" y="140" width="160" height="26" as="alternateBounds" />
          </mxGeometry>
        </mxCell>
        <mxCell id="zkfFHV4jXpPFQw0GAbJ--1" value="Name" style="text;align=left;verticalAlign=top;spacingLeft=4;spacingRight=4;overflow=hidden;rotatable=0;points=[[0,0.5],[1,0.5]];portConstraint=eastwest;" parent="zkfFHV4jXpPFQw0GAbJ--0" vertex="1">
          <mxGeometry y="26" width="160" height="26" as="geometry" />
        </mxCell>
        <mxCell id="zkfFHV4jXpPFQw0GAbJ--2" value="Phone Number" style="text;align=left;verticalAlign=top;spacingLeft=4;spacingRight=4;overflow=hidden;rotatable=0;points=[[0,0.5],[1,0.5]];portConstraint=eastwest;rounded=0;shadow=0;html=0;" parent="zkfFHV4jXpPFQw0GAbJ--0" vertex="1">
          <mxGeometry y="52" width="160" height="26" as="geometry" />
        </mxCell>
        <mxCell id="zkfFHV4jXpPFQw0GAbJ--3" value="Email Address" style="text;align=left;verticalAlign=top;spacingLeft=4;spacingRight=4;overflow=hidden;rotatable=0;points=[[0,0.5],[1,0.5]];portConstraint=eastwest;rounded=0;shadow=0;html=0;" parent="zkfFHV4jXpPFQw0GAbJ--0" vertex="1">
          <mxGeometry y="78" width="160" height="26" as="geometry" />
        </mxCell>
        <mxCell id="zkfFHV4jXpPFQw0GAbJ--4" value="" style="line;html=1;strokeWidth=1;align=left;verticalAlign=middle;spacingTop=-1;spacingLeft=3;spacingRight=3;rotatable=0;labelPosition=right;points=[];portConstraint=eastwest;" parent="zkfFHV4jXpPFQw0GAbJ--0" vertex="1">
          <mxGeometry y="104" width="160" height="8" as="geometry" />
        </mxCell>
        <mxCell id="zkfFHV4jXpPFQw0GAbJ--5" value="Purchase Parking Pass" style="text;align=left;verticalAlign=top;spacingLeft=4;spacingRight=4;overflow=hidden;rotatable=0;points=[[0,0.5],[1,0.5]];portConstraint=eastwest;" parent="zkfFHV4jXpPFQw0GAbJ--0" vertex="1">
          <mxGeometry y="112" width="160" height="26" as="geometry" />
        </mxCell>
        <mxCell id="zkfFHV4jXpPFQw0GAbJ--6" value="Student" style="swimlane;fontStyle=0;align=center;verticalAlign=top;childLayout=stackLayout;horizontal=1;startSize=26;horizontalStack=0;resizeParent=1;resizeLast=0;collapsible=1;marginBottom=0;rounded=0;shadow=0;strokeWidth=1;" parent="WIyWlLk6GJQsqaUBKTNV-1" vertex="1">
          <mxGeometry x="120" y="360" width="160" height="138" as="geometry">
            <mxRectangle x="130" y="380" width="160" height="26" as="alternateBounds" />
          </mxGeometry>
        </mxCell>
        <mxCell id="zkfFHV4jXpPFQw0GAbJ--7" value="Student Number" style="text;align=left;verticalAlign=top;spacingLeft=4;spacingRight=4;overflow=hidden;rotatable=0;points=[[0,0.5],[1,0.5]];portConstraint=eastwest;" parent="zkfFHV4jXpPFQw0GAbJ--6" vertex="1">
          <mxGeometry y="26" width="160" height="26" as="geometry" />
        </mxCell>
        <mxCell id="zkfFHV4jXpPFQw0GAbJ--8" value="Average Mark" style="text;align=left;verticalAlign=top;spacingLeft=4;spacingRight=4;overflow=hidden;rotatable=0;points=[[0,0.5],[1,0.5]];portConstraint=eastwest;rounded=0;shadow=0;html=0;" parent="zkfFHV4jXpPFQw0GAbJ--6" vertex="1">
          <mxGeometry y="52" width="160" height="26" as="geometry" />
        </mxCell>
        <mxCell id="zkfFHV4jXpPFQw0GAbJ--9" value="" style="line;html=1;strokeWidth=1;align=left;verticalAlign=middle;spacingTop=-1;spacingLeft=3;spacingRight=3;rotatable=0;labelPosition=right;points=[];portConstraint=eastwest;" parent="zkfFHV4jXpPFQw0GAbJ--6" vertex="1">
          <mxGeometry y="78" width="160" height="8" as="geometry" />
        </mxCell>
        <mxCell id="zkfFHV4jXpPFQw0GAbJ--10" value="Is Eligible To Enroll" style="text;align=left;verticalAlign=top;spacingLeft=4;spacingRight=4;overflow=hidden;rotatable=0;points=[[0,0.5],[1,0.5]];portConstraint=eastwest;fontStyle=4" parent="zkfFHV4jXpPFQw0GAbJ--6" vertex="1">
          <mxGeometry y="86" width="160" height="26" as="geometry" />
        </mxCell>
        <mxCell id="zkfFHV4jXpPFQw0GAbJ--11" value="Get Seminars Taken" style="text;align=left;verticalAlign=top;spacingLeft=4;spacingRight=4;overflow=hidden;rotatable=0;points=[[0,0.5],[1,0.5]];portConstraint=eastwest;" parent="zkfFHV4jXpPFQw0GAbJ--6" vertex="1">
          <mxGeometry y="112" width="160" height="26" as="geometry" />
        </mxCell>
        <mxCell id="zkfFHV4jXpPFQw0GAbJ--12" value="" style="endArrow=block;endSize=10;endFill=0;shadow=0;strokeWidth=1;rounded=0;curved=0;edgeStyle=elbowEdgeStyle;elbow=vertical;" parent="WIyWlLk6GJQsqaUBKTNV-1" source="zkfFHV4jXpPFQw0GAbJ--6" target="zkfFHV4jXpPFQw0GAbJ--0" edge="1">
          <mxGeometry width="160" relative="1" as="geometry">
            <mxPoint x="200" y="203" as="sourcePoint" />
            <mxPoint x="200" y="203" as="targetPoint" />
          </mxGeometry>
        </mxCell>
        <mxCell id="zkfFHV4jXpPFQw0GAbJ--13" value="Professor" style="swimlane;fontStyle=0;align=center;verticalAlign=top;childLayout=stackLayout;horizontal=1;startSize=26;horizontalStack=0;resizeParent=1;resizeLast=0;collapsible=1;marginBottom=0;rounded=0;shadow=0;strokeWidth=1;" parent="WIyWlLk6GJQsqaUBKTNV-1" vertex="1">
          <mxGeometry x="330" y="360" width="160" height="70" as="geometry">
            <mxRectangle x="340" y="380" width="170" height="26" as="alternateBounds" />
          </mxGeometry>
        </mxCell>
        <mxCell id="zkfFHV4jXpPFQw0GAbJ--14" value="Salary" style="text;align=left;verticalAlign=top;spacingLeft=4;spacingRight=4;overflow=hidden;rotatable=0;points=[[0,0.5],[1,0.5]];portConstraint=eastwest;" parent="zkfFHV4jXpPFQw0GAbJ--13" vertex="1">
          <mxGeometry y="26" width="160" height="26" as="geometry" />
        </mxCell>
        <mxCell id="zkfFHV4jXpPFQw0GAbJ--15" value="" style="line;html=1;strokeWidth=1;align=left;verticalAlign=middle;spacingTop=-1;spacingLeft=3;spacingRight=3;rotatable=0;labelPosition=right;points=[];portConstraint=eastwest;" parent="zkfFHV4jXpPFQw0GAbJ--13" vertex="1">
          <mxGeometry y="52" width="160" height="8" as="geometry" />
        </mxCell>
        <mxCell id="zkfFHV4jXpPFQw0GAbJ--16" value="" style="endArrow=block;endSize=10;endFill=0;shadow=0;strokeWidth=1;rounded=0;curved=0;edgeStyle=elbowEdgeStyle;elbow=vertical;" parent="WIyWlLk6GJQsqaUBKTNV-1" source="zkfFHV4jXpPFQw0GAbJ--13" target="zkfFHV4jXpPFQw0GAbJ--0" edge="1">
          <mxGeometry width="160" relative="1" as="geometry">
            <mxPoint x="210" y="373" as="sourcePoint" />
            <mxPoint x="310" y="271" as="targetPoint" />
          </mxGeometry>
        </mxCell>
        <mxCell id="zkfFHV4jXpPFQw0GAbJ--17" value="Address" style="swimlane;fontStyle=0;align=center;verticalAlign=top;childLayout=stackLayout;horizontal=1;startSize=26;horizontalStack=0;resizeParent=1;resizeLast=0;collapsible=1;marginBottom=0;rounded=0;shadow=0;strokeWidth=1;" parent="WIyWlLk6GJQsqaUBKTNV-1" vertex="1">
          <mxGeometry x="508" y="120" width="160" height="216" as="geometry">
            <mxRectangle x="550" y="140" width="160" height="26" as="alternateBounds" />
          </mxGeometry>
        </mxCell>
        <mxCell id="zkfFHV4jXpPFQw0GAbJ--18" value="Street" style="text;align=left;verticalAlign=top;spacingLeft=4;spacingRight=4;overflow=hidden;rotatable=0;points=[[0,0.5],[1,0.5]];portConstraint=eastwest;" parent="zkfFHV4jXpPFQw0GAbJ--17" vertex="1">
          <mxGeometry y="26" width="160" height="26" as="geometry" />
        </mxCell>
        <mxCell id="zkfFHV4jXpPFQw0GAbJ--19" value="City" style="text;align=left;verticalAlign=top;spacingLeft=4;spacingRight=4;overflow=hidden;rotatable=0;points=[[0,0.5],[1,0.5]];portConstraint=eastwest;rounded=0;shadow=0;html=0;" parent="zkfFHV4jXpPFQw0GAbJ--17" vertex="1">
          <mxGeometry y="52" width="160" height="26" as="geometry" />
        </mxCell>
        <mxCell id="zkfFHV4jXpPFQw0GAbJ--20" value="State" style="text;align=left;verticalAlign=top;spacingLeft=4;spacingRight=4;overflow=hidden;rotatable=0;points=[[0,0.5],[1,0.5]];portConstraint=eastwest;rounded=0;shadow=0;html=0;" parent="zkfFHV4jXpPFQw0GAbJ--17" vertex="1">
          <mxGeometry y="78" width="160" height="26" as="geometry" />
        </mxCell>
        <mxCell id="zkfFHV4jXpPFQw0GAbJ--21" value="Postal Code" style="text;align=left;verticalAlign=top;spacingLeft=4;spacingRight=4;overflow=hidden;rotatable=0;points=[[0,0.5],[1,0.5]];portConstraint=eastwest;rounded=0;shadow=0;html=0;" parent="zkfFHV4jXpPFQw0GAbJ--17" vertex="1">
          <mxGeometry y="104" width="160" height="26" as="geometry" />
        </mxCell>
        <mxCell id="zkfFHV4jXpPFQw0GAbJ--22" value="Country" style="text;align=left;verticalAlign=top;spacingLeft=4;spacingRight=4;overflow=hidden;rotatable=0;points=[[0,0.5],[1,0.5]];portConstraint=eastwest;rounded=0;shadow=0;html=0;" parent="zkfFHV4jXpPFQw0GAbJ--17" vertex="1">
          <mxGeometry y="130" width="160" height="26" as="geometry" />
        </mxCell>
        <mxCell id="zkfFHV4jXpPFQw0GAbJ--23" value="" style="line;html=1;strokeWidth=1;align=left;verticalAlign=middle;spacingTop=-1;spacingLeft=3;spacingRight=3;rotatable=0;labelPosition=right;points=[];portConstraint=eastwest;" parent="zkfFHV4jXpPFQw0GAbJ--17" vertex="1">
          <mxGeometry y="156" width="160" height="8" as="geometry" />
        </mxCell>
        <mxCell id="zkfFHV4jXpPFQw0GAbJ--24" value="Validate" style="text;align=left;verticalAlign=top;spacingLeft=4;spacingRight=4;overflow=hidden;rotatable=0;points=[[0,0.5],[1,0.5]];portConstraint=eastwest;" parent="zkfFHV4jXpPFQw0GAbJ--17" vertex="1">
          <mxGeometry y="164" width="160" height="26" as="geometry" />
        </mxCell>
        <mxCell id="zkfFHV4jXpPFQw0GAbJ--25" value="Output As Label" style="text;align=left;verticalAlign=top;spacingLeft=4;spacingRight=4;overflow=hidden;rotatable=0;points=[[0,0.5],[1,0.5]];portConstraint=eastwest;" parent="zkfFHV4jXpPFQw0GAbJ--17" vertex="1">
          <mxGeometry y="190" width="160" height="26" as="geometry" />
        </mxCell>
        <mxCell id="zkfFHV4jXpPFQw0GAbJ--26" value="" style="endArrow=open;shadow=0;strokeWidth=1;rounded=0;curved=0;endFill=1;edgeStyle=elbowEdgeStyle;elbow=vertical;" parent="WIyWlLk6GJQsqaUBKTNV-1" source="zkfFHV4jXpPFQw0GAbJ--0" target="zkfFHV4jXpPFQw0GAbJ--17" edge="1">
          <mxGeometry x="0.5" y="41" relative="1" as="geometry">
            <mxPoint x="380" y="192" as="sourcePoint" />
            <mxPoint x="540" y="192" as="targetPoint" />
            <mxPoint x="-40" y="32" as="offset" />
          </mxGeometry>
        </mxCell>
        <mxCell id="zkfFHV4jXpPFQw0GAbJ--27" value="0..1" style="resizable=0;align=left;verticalAlign=bottom;labelBackgroundColor=none;fontSize=12;" parent="zkfFHV4jXpPFQw0GAbJ--26" connectable="0" vertex="1">
          <mxGeometry x="-1" relative="1" as="geometry">
            <mxPoint y="4" as="offset" />
          </mxGeometry>
        </mxCell>
        <mxCell id="zkfFHV4jXpPFQw0GAbJ--28" value="1" style="resizable=0;align=right;verticalAlign=bottom;labelBackgroundColor=none;fontSize=12;" parent="zkfFHV4jXpPFQw0GAbJ--26" connectable="0" vertex="1">
          <mxGeometry x="1" relative="1" as="geometry">
            <mxPoint x="-7" y="4" as="offset" />
          </mxGeometry>
        </mxCell>
        <mxCell id="zkfFHV4jXpPFQw0GAbJ--29" value="lives at" style="text;html=1;resizable=0;points=[];;align=center;verticalAlign=middle;labelBackgroundColor=none;rounded=0;shadow=0;strokeWidth=1;fontSize=12;" parent="zkfFHV4jXpPFQw0GAbJ--26" vertex="1" connectable="0">
          <mxGeometry x="0.5" y="49" relative="1" as="geometry">
            <mxPoint x="-38" y="40" as="offset" />
          </mxGeometry>
        </mxCell>
        <mxCell id="KGP1jkVmF8Bm5Uq_dvbD-0" value="1. Make the connection to Data set easier" style="text;html=1;align=center;verticalAlign=middle;resizable=0;points=[];autosize=1;strokeColor=none;fillColor=none;" parent="WIyWlLk6GJQsqaUBKTNV-1" vertex="1">
          <mxGeometry x="809" y="282" width="239" height="26" as="geometry" />
        </mxCell>
        <mxCell id="KGP1jkVmF8Bm5Uq_dvbD-1" value="2. Ajax based" style="text;html=1;align=center;verticalAlign=middle;resizable=0;points=[];autosize=1;strokeColor=none;fillColor=none;" parent="WIyWlLk6GJQsqaUBKTNV-1" vertex="1">
          <mxGeometry x="809" y="420" width="90" height="26" as="geometry" />
        </mxCell>
        <mxCell id="KGP1jkVmF8Bm5Uq_dvbD-2" value="" style="endArrow=none;html=1;rounded=0;exitX=0.634;exitY=0.927;exitDx=0;exitDy=0;exitPerimeter=0;entryX=0.829;entryY=0.937;entryDx=0;entryDy=0;entryPerimeter=0;" parent="WIyWlLk6GJQsqaUBKTNV-1" edge="1">
          <mxGeometry width="50" height="50" relative="1" as="geometry">
            <mxPoint x="958.5260000000001" y="302.102" as="sourcePoint" />
            <mxPoint x="1005.1310000000001" y="302.36199999999997" as="targetPoint" />
          </mxGeometry>
        </mxCell>
        <mxCell id="KGP1jkVmF8Bm5Uq_dvbD-3" value="" style="endArrow=none;html=1;rounded=0;" parent="WIyWlLk6GJQsqaUBKTNV-1" edge="1">
          <mxGeometry width="50" height="50" relative="1" as="geometry">
            <mxPoint x="984" y="328" as="sourcePoint" />
            <mxPoint x="984" y="302" as="targetPoint" />
          </mxGeometry>
        </mxCell>
        <mxCell id="KGP1jkVmF8Bm5Uq_dvbD-4" value="" style="endArrow=none;html=1;rounded=0;" parent="WIyWlLk6GJQsqaUBKTNV-1" edge="1">
          <mxGeometry width="50" height="50" relative="1" as="geometry">
            <mxPoint x="928" y="328" as="sourcePoint" />
            <mxPoint x="1064" y="329" as="targetPoint" />
          </mxGeometry>
        </mxCell>
        <mxCell id="KGP1jkVmF8Bm5Uq_dvbD-5" value="&lt;font style=&quot;font-size: 10px;&quot;&gt;Json&lt;br&gt;or&lt;br&gt;XML&lt;/font&gt;" style="text;html=1;align=center;verticalAlign=middle;resizable=0;points=[];autosize=1;strokeColor=none;fillColor=none;" parent="WIyWlLk6GJQsqaUBKTNV-1" vertex="1">
          <mxGeometry x="909" y="349" width="39" height="55" as="geometry" />
        </mxCell>
        <mxCell id="KGP1jkVmF8Bm5Uq_dvbD-6" value="&lt;font style=&quot;font-size: 10px;&quot;&gt;DB&lt;/font&gt;" style="text;html=1;align=center;verticalAlign=middle;resizable=0;points=[];autosize=1;strokeColor=none;fillColor=none;" parent="WIyWlLk6GJQsqaUBKTNV-1" vertex="1">
          <mxGeometry x="960" y="355" width="32" height="26" as="geometry" />
        </mxCell>
        <mxCell id="KGP1jkVmF8Bm5Uq_dvbD-7" value="&lt;font style=&quot;font-size: 10px;&quot;&gt;Nosql&lt;/font&gt;" style="text;html=1;align=center;verticalAlign=middle;resizable=0;points=[];autosize=1;strokeColor=none;fillColor=none;" parent="WIyWlLk6GJQsqaUBKTNV-1" vertex="1">
          <mxGeometry x="1004" y="355" width="44" height="26" as="geometry" />
        </mxCell>
        <mxCell id="KGP1jkVmF8Bm5Uq_dvbD-8" value="&lt;font style=&quot;font-size: 10px;&quot;&gt;API&lt;/font&gt;" style="text;html=1;align=center;verticalAlign=middle;resizable=0;points=[];autosize=1;strokeColor=none;fillColor=none;" parent="WIyWlLk6GJQsqaUBKTNV-1" vertex="1">
          <mxGeometry x="1048" y="355" width="34" height="26" as="geometry" />
        </mxCell>
        <mxCell id="KGP1jkVmF8Bm5Uq_dvbD-9" value="" style="endArrow=none;html=1;rounded=0;exitX=0.48;exitY=0.032;exitDx=0;exitDy=0;exitPerimeter=0;" parent="WIyWlLk6GJQsqaUBKTNV-1" source="KGP1jkVmF8Bm5Uq_dvbD-8" edge="1">
          <mxGeometry width="50" height="50" relative="1" as="geometry">
            <mxPoint x="945" y="479" as="sourcePoint" />
            <mxPoint x="1064" y="329" as="targetPoint" />
          </mxGeometry>
        </mxCell>
        <mxCell id="KGP1jkVmF8Bm5Uq_dvbD-10" value="" style="endArrow=none;html=1;rounded=0;exitX=0.523;exitY=0;exitDx=0;exitDy=0;exitPerimeter=0;" parent="WIyWlLk6GJQsqaUBKTNV-1" source="KGP1jkVmF8Bm5Uq_dvbD-7" edge="1">
          <mxGeometry width="50" height="50" relative="1" as="geometry">
            <mxPoint x="945" y="479" as="sourcePoint" />
            <mxPoint x="1028" y="328" as="targetPoint" />
          </mxGeometry>
        </mxCell>
        <mxCell id="KGP1jkVmF8Bm5Uq_dvbD-11" value="" style="endArrow=none;html=1;rounded=0;" parent="WIyWlLk6GJQsqaUBKTNV-1" source="KGP1jkVmF8Bm5Uq_dvbD-6" edge="1">
          <mxGeometry width="50" height="50" relative="1" as="geometry">
            <mxPoint x="945" y="479" as="sourcePoint" />
            <mxPoint x="977" y="328" as="targetPoint" />
          </mxGeometry>
        </mxCell>
        <mxCell id="KGP1jkVmF8Bm5Uq_dvbD-12" value="" style="endArrow=none;html=1;rounded=0;" parent="WIyWlLk6GJQsqaUBKTNV-1" edge="1">
          <mxGeometry width="50" height="50" relative="1" as="geometry">
            <mxPoint x="928" y="353" as="sourcePoint" />
            <mxPoint x="928" y="327" as="targetPoint" />
          </mxGeometry>
        </mxCell>
        <UserObject label="" plantUmlData="{&#xa;  &quot;data&quot;: &quot;@startuml\npackage Core {\n  class Borrowing {\n    +borrowBook()\n    +returnBook()\n    +calculateFine()\n  }\n}\n\npackage Generic {\n  class Book {\n    +title\n    +author\n    +isbn\n    +availability\n  }\n}\n\npackage Supporting {\n  class Member {\n    +name\n    +membershipID\n    +address\n  }\n}\n\nBorrowing --&gt; Book : borrows\nBorrowing --&gt; Member : involves\n@enduml\n&quot;,&#xa;  &quot;format&quot;: &quot;svg&quot;&#xa;}" id="1NbmmqPmAqIWwFa_HTDq-0">
          <mxCell style="shape=image;noLabel=1;verticalAlign=top;aspect=fixed;imageAspect=0;image=data:image/svg+xml,PD94bWwgdmVyc2lvbj0iMS4wIiBlbmNvZGluZz0idXMtYXNjaWkiIHN0YW5kYWxvbmU9Im5vIj8+PHN2ZyB4bWxucz0iaHR0cDovL3d3dy53My5vcmcvMjAwMC9zdmciIHhtbG5zOnhsaW5rPSJodHRwOi8vd3d3LnczLm9yZy8xOTk5L3hsaW5rIiBjb250ZW50U3R5bGVUeXBlPSJ0ZXh0L2NzcyIgaGVpZ2h0PSIzNTlweCIgcHJlc2VydmVBc3BlY3RSYXRpbz0ibm9uZSIgc3R5bGU9IndpZHRoOjMyM3B4O2hlaWdodDozNTlweDtiYWNrZ3JvdW5kOiNGRkZGRkY7IiB2ZXJzaW9uPSIxLjEiIHZpZXdCb3g9IjAgMCAzMjMgMzU5IiB3aWR0aD0iMzIzcHgiIHpvb21BbmRQYW49Im1hZ25pZnkiPjxkZWZzLz48Zz48IS0tY2x1c3RlciBDb3JlLS0+PGcgaWQ9ImNsdXN0ZXJfQ29yZSI+PHBhdGggZD0iTTQ0LjUsNiBMNzMuNSw2IEEzLjc1LDMuNzUgMCAwIDEgNzYsOC41IEw4MywyNi45ODQ0IEwyMDUuNSwyNi45ODQ0IEEyLjUsMi41IDAgMCAxIDIwOCwyOS40ODQ0IEwyMDgsMTQ1LjUgQTIuNSwyLjUgMCAwIDEgMjA1LjUsMTQ4IEw0NC41LDE0OCBBMi41LDIuNSAwIDAgMSA0MiwxNDUuNSBMNDIsOC41IEEyLjUsMi41IDAgMCAxIDQ0LjUsNiAiIGZpbGw9Im5vbmUiIHN0eWxlPSJzdHJva2U6IzAwMDAwMDtzdHJva2Utd2lkdGg6MS41OyIvPjxsaW5lIHN0eWxlPSJzdHJva2U6IzAwMDAwMDtzdHJva2Utd2lkdGg6MS41OyIgeDE9IjQyIiB4Mj0iODMiIHkxPSIyNi45ODQ0IiB5Mj0iMjYuOTg0NCIvPjx0ZXh0IGZpbGw9IiMwMDAwMDAiIGZvbnQtZmFtaWx5PSJzYW5zLXNlcmlmIiBmb250LXNpemU9IjE0IiBmb250LXdlaWdodD0iYm9sZCIgbGVuZ3RoQWRqdXN0PSJzcGFjaW5nIiB0ZXh0TGVuZ3RoPSIyOCIgeD0iNDYiIHk9IjIxLjIzNDQiPkNvcmU8L3RleHQ+PC9nPjwhLS1jbHVzdGVyIEdlbmVyaWMtLT48ZyBpZD0iY2x1c3Rlcl9HZW5lcmljIj48cGF0aCBkPSJNOC41LDE5NSBMNTguNSwxOTUgQTMuNzUsMy43NSAwIDAgMSA2MSwxOTcuNSBMNjgsMjE1Ljk4NDQgTDE0NS41LDIxNS45ODQ0IEEyLjUsMi41IDAgMCAxIDE0OCwyMTguNDg0NCBMMTQ4LDM0OS41IEEyLjUsMi41IDAgMCAxIDE0NS41LDM1MiBMOC41LDM1MiBBMi41LDIuNSAwIDAgMSA2LDM0OS41IEw2LDE5Ny41IEEyLjUsMi41IDAgMCAxIDguNSwxOTUgIiBmaWxsPSJub25lIiBzdHlsZT0ic3Ryb2tlOiMwMDAwMDA7c3Ryb2tlLXdpZHRoOjEuNTsiLz48bGluZSBzdHlsZT0ic3Ryb2tlOiMwMDAwMDA7c3Ryb2tlLXdpZHRoOjEuNTsiIHgxPSI2IiB4Mj0iNjgiIHkxPSIyMTUuOTg0NCIgeTI9IjIxNS45ODQ0Ii8+PHRleHQgZmlsbD0iIzAwMDAwMCIgZm9udC1mYW1pbHk9InNhbnMtc2VyaWYiIGZvbnQtc2l6ZT0iMTQiIGZvbnQtd2VpZ2h0PSJib2xkIiBsZW5ndGhBZGp1c3Q9InNwYWNpbmciIHRleHRMZW5ndGg9IjQ5IiB4PSIxMCIgeT0iMjEwLjIzNDQiPkdlbmVyaWM8L3RleHQ+PC9nPjwhLS1jbHVzdGVyIFN1cHBvcnRpbmctLT48ZyBpZD0iY2x1c3Rlcl9TdXBwb3J0aW5nIj48cGF0aCBkPSJNMTc0LjUsMjAyLjUgTDI0NS41LDIwMi41IEEzLjc1LDMuNzUgMCAwIDEgMjQ4LDIwNSBMMjU1LDIyMy40ODQ0IEwzMTMuNSwyMjMuNDg0NCBBMi41LDIuNSAwIDAgMSAzMTYsMjI1Ljk4NDQgTDMxNiwzNDIgQTIuNSwyLjUgMCAwIDEgMzEzLjUsMzQ0LjUgTDE3NC41LDM0NC41IEEyLjUsMi41IDAgMCAxIDE3MiwzNDIgTDE3MiwyMDUgQTIuNSwyLjUgMCAwIDEgMTc0LjUsMjAyLjUgIiBmaWxsPSJub25lIiBzdHlsZT0ic3Ryb2tlOiMwMDAwMDA7c3Ryb2tlLXdpZHRoOjEuNTsiLz48bGluZSBzdHlsZT0ic3Ryb2tlOiMwMDAwMDA7c3Ryb2tlLXdpZHRoOjEuNTsiIHgxPSIxNzIiIHgyPSIyNTUiIHkxPSIyMjMuNDg0NCIgeTI9IjIyMy40ODQ0Ii8+PHRleHQgZmlsbD0iIzAwMDAwMCIgZm9udC1mYW1pbHk9InNhbnMtc2VyaWYiIGZvbnQtc2l6ZT0iMTQiIGZvbnQtd2VpZ2h0PSJib2xkIiBsZW5ndGhBZGp1c3Q9InNwYWNpbmciIHRleHRMZW5ndGg9IjcwIiB4PSIxNzYiIHk9IjIxNy43MzQ0Ij5TdXBwb3J0aW5nPC90ZXh0PjwvZz48IS0tY2xhc3MgQm9ycm93aW5nLS0+PGcgaWQ9ImVsZW1fQm9ycm93aW5nIj48cmVjdCBjb2RlTGluZT0iMiIgZmlsbD0iI0YxRjFGMSIgaGVpZ2h0PSI5Mi45NTMxIiBpZD0iQm9ycm93aW5nIiByeD0iMi41IiByeT0iMi41IiBzdHlsZT0ic3Ryb2tlOiMxODE4MTg7c3Ryb2tlLXdpZHRoOjAuNTsiIHdpZHRoPSIxMzMiIHg9IjU4LjUiIHk9IjM5Ii8+PGVsbGlwc2UgY3g9IjkwLjE1IiBjeT0iNTUiIGZpbGw9IiNBREQxQjIiIHJ4PSIxMSIgcnk9IjExIiBzdHlsZT0ic3Ryb2tlOiMxODE4MTg7c3Ryb2tlLXdpZHRoOjEuMDsiLz48cGF0aCBkPSJNODcuNzc1LDU5LjI1IEw4Ny43NzUsNjEgTDkyLjcxMjUsNjEgTDkyLjcxMjUsNTkuMjUgTDg3Ljc3NSw1OS4yNSBaIE04OC40NjI1LDU5LjkzNzUgUTg4LjQ2MjUsNTkuOTM3NSA4OC40NjI1LDUwLjc1IEw4Ni43MTI1LDUwLjc1IFE4Ni43MTI1LDUwLjc1IDg2LjcxMjUsNTkuOTM3NSBMODguNDYyNSw1OS45Mzc1IFogTTkyLjAyNSw1OS45Mzc1IEw5My43NzUsNTkuOTM3NSBROTMuNzc1LDU5LjkzNzUgOTMuNzc1LDU3LjEyNSBMOTIuMDI1LDU3LjEyNSBROTIuMDI1LDU3LjEyNSA5Mi4wMjUsNTkuOTM3NSBaIE05Mi4wMjUsNTAuNzUgUTkyLjAyNSw1MC43NSA5Mi4wMjUsNTMuNTYyNSBMOTMuNzc1LDUzLjU2MjUgUTkzLjc3NSw1My41NjI1IDkzLjc3NSw1MC43NSBMOTIuMDI1LDUwLjc1IFogTTg3Ljc3NSw1MS40Mzc1IEw5Mi43MTI1LDUxLjQzNzUgTDkyLjcxMjUsNDkuNjg3NSBMODcuNzc1LDQ5LjY4NzUgTDg3Ljc3NSw1MS40Mzc1IFogIiBmaWxsPSIjMDAwMDAwIi8+PHRleHQgZmlsbD0iIzAwMDAwMCIgZm9udC1mYW1pbHk9InNhbnMtc2VyaWYiIGZvbnQtc2l6ZT0iMTQiIGxlbmd0aEFkanVzdD0ic3BhY2luZyIgdGV4dExlbmd0aD0iNjQiIHg9IjEwNy44NSIgeT0iNjAuNzQyMiI+Qm9ycm93aW5nPC90ZXh0PjxsaW5lIHN0eWxlPSJzdHJva2U6IzE4MTgxODtzdHJva2Utd2lkdGg6MC41OyIgeDE9IjU5LjUiIHgyPSIxOTAuNSIgeTE9IjcxIiB5Mj0iNzEiLz48bGluZSBzdHlsZT0ic3Ryb2tlOiMxODE4MTg7c3Ryb2tlLXdpZHRoOjAuNTsiIHgxPSI1OS41IiB4Mj0iMTkwLjUiIHkxPSI3OSIgeTI9Ijc5Ii8+PGVsbGlwc2UgY3g9IjY5LjUiIGN5PSI5MS45OTIyIiBmaWxsPSIjODRCRTg0IiByeD0iMyIgcnk9IjMiIHN0eWxlPSJzdHJva2U6IzAzODA0ODtzdHJva2Utd2lkdGg6MS4wOyIvPjx0ZXh0IGZpbGw9IiMwMDAwMDAiIGZvbnQtZmFtaWx5PSJzYW5zLXNlcmlmIiBmb250LXNpemU9IjE0IiBsZW5ndGhBZGp1c3Q9InNwYWNpbmciIHRleHRMZW5ndGg9Ijg3IiB4PSI3OC41IiB5PSI5Ni4yMzQ0Ij5ib3Jyb3dCb29rKCk8L3RleHQ+PGVsbGlwc2UgY3g9IjY5LjUiIGN5PSIxMDYuOTc2NiIgZmlsbD0iIzg0QkU4NCIgcng9IjMiIHJ5PSIzIiBzdHlsZT0ic3Ryb2tlOiMwMzgwNDg7c3Ryb2tlLXdpZHRoOjEuMDsiLz48dGV4dCBmaWxsPSIjMDAwMDAwIiBmb250LWZhbWlseT0ic2Fucy1zZXJpZiIgZm9udC1zaXplPSIxNCIgbGVuZ3RoQWRqdXN0PSJzcGFjaW5nIiB0ZXh0TGVuZ3RoPSI4NiIgeD0iNzguNSIgeT0iMTExLjIxODgiPnJldHVybkJvb2soKTwvdGV4dD48ZWxsaXBzZSBjeD0iNjkuNSIgY3k9IjEyMS45NjA5IiBmaWxsPSIjODRCRTg0IiByeD0iMyIgcnk9IjMiIHN0eWxlPSJzdHJva2U6IzAzODA0ODtzdHJva2Utd2lkdGg6MS4wOyIvPjx0ZXh0IGZpbGw9IiMwMDAwMDAiIGZvbnQtZmFtaWx5PSJzYW5zLXNlcmlmIiBmb250LXNpemU9IjE0IiBsZW5ndGhBZGp1c3Q9InNwYWNpbmciIHRleHRMZW5ndGg9IjEwNyIgeD0iNzguNSIgeT0iMTI2LjIwMzEiPmNhbGN1bGF0ZUZpbmUoKTwvdGV4dD48L2c+PCEtLWNsYXNzIEJvb2stLT48ZyBpZD0iZWxlbV9Cb29rIj48cmVjdCBjb2RlTGluZT0iMTAiIGZpbGw9IiNGMUYxRjEiIGhlaWdodD0iMTA3LjkzNzUiIGlkPSJCb29rIiByeD0iMi41IiByeT0iMi41IiBzdHlsZT0ic3Ryb2tlOiMxODE4MTg7c3Ryb2tlLXdpZHRoOjAuNTsiIHdpZHRoPSIxMTAiIHg9IjIyIiB5PSIyMjgiLz48ZWxsaXBzZSBjeD0iNTkuNSIgY3k9IjI0NCIgZmlsbD0iI0FERDFCMiIgcng9IjExIiByeT0iMTEiIHN0eWxlPSJzdHJva2U6IzE4MTgxODtzdHJva2Utd2lkdGg6MS4wOyIvPjxwYXRoIGQ9Ik01Ny4xMjUsMjQ4LjI1IEw1Ny4xMjUsMjUwIEw2Mi4wNjI1LDI1MCBMNjIuMDYyNSwyNDguMjUgTDU3LjEyNSwyNDguMjUgWiBNNTcuODEyNSwyNDguOTM3NSBRNTcuODEyNSwyNDguOTM3NSA1Ny44MTI1LDIzOS43NSBMNTYuMDYyNSwyMzkuNzUgUTU2LjA2MjUsMjM5Ljc1IDU2LjA2MjUsMjQ4LjkzNzUgTDU3LjgxMjUsMjQ4LjkzNzUgWiBNNjEuMzc1LDI0OC45Mzc1IEw2My4xMjUsMjQ4LjkzNzUgUTYzLjEyNSwyNDguOTM3NSA2My4xMjUsMjQ2LjEyNSBMNjEuMzc1LDI0Ni4xMjUgUTYxLjM3NSwyNDYuMTI1IDYxLjM3NSwyNDguOTM3NSBaIE02MS4zNzUsMjM5Ljc1IFE2MS4zNzUsMjM5Ljc1IDYxLjM3NSwyNDIuNTYyNSBMNjMuMTI1LDI0Mi41NjI1IFE2My4xMjUsMjQyLjU2MjUgNjMuMTI1LDIzOS43NSBMNjEuMzc1LDIzOS43NSBaIE01Ny4xMjUsMjQwLjQzNzUgTDYyLjA2MjUsMjQwLjQzNzUgTDYyLjA2MjUsMjM4LjY4NzUgTDU3LjEyNSwyMzguNjg3NSBMNTcuMTI1LDI0MC40Mzc1IFogIiBmaWxsPSIjMDAwMDAwIi8+PHRleHQgZmlsbD0iIzAwMDAwMCIgZm9udC1mYW1pbHk9InNhbnMtc2VyaWYiIGZvbnQtc2l6ZT0iMTQiIGxlbmd0aEFkanVzdD0ic3BhY2luZyIgdGV4dExlbmd0aD0iMjgiIHg9Ijc4LjUiIHk9IjI0OS43NDIyIj5Cb29rPC90ZXh0PjxsaW5lIHN0eWxlPSJzdHJva2U6IzE4MTgxODtzdHJva2Utd2lkdGg6MC41OyIgeDE9IjIzIiB4Mj0iMTMxIiB5MT0iMjYwIiB5Mj0iMjYwIi8+PGVsbGlwc2UgY3g9IjMzIiBjeT0iMjcyLjk5MjIiIGZpbGw9Im5vbmUiIHJ4PSIzIiByeT0iMyIgc3R5bGU9InN0cm9rZTojMDM4MDQ4O3N0cm9rZS13aWR0aDoxLjA7Ii8+PHRleHQgZmlsbD0iIzAwMDAwMCIgZm9udC1mYW1pbHk9InNhbnMtc2VyaWYiIGZvbnQtc2l6ZT0iMTQiIGxlbmd0aEFkanVzdD0ic3BhY2luZyIgdGV4dExlbmd0aD0iMzUiIHg9IjQyIiB5PSIyNzcuMjM0NCI+dGl0bGU8L3RleHQ+PGVsbGlwc2UgY3g9IjMzIiBjeT0iMjg3Ljk3NjYiIGZpbGw9Im5vbmUiIHJ4PSIzIiByeT0iMyIgc3R5bGU9InN0cm9rZTojMDM4MDQ4O3N0cm9rZS13aWR0aDoxLjA7Ii8+PHRleHQgZmlsbD0iIzAwMDAwMCIgZm9udC1mYW1pbHk9InNhbnMtc2VyaWYiIGZvbnQtc2l6ZT0iMTQiIGxlbmd0aEFkanVzdD0ic3BhY2luZyIgdGV4dExlbmd0aD0iNDIiIHg9IjQyIiB5PSIyOTIuMjE4OCI+YXV0aG9yPC90ZXh0PjxlbGxpcHNlIGN4PSIzMyIgY3k9IjMwMi45NjA5IiBmaWxsPSJub25lIiByeD0iMyIgcnk9IjMiIHN0eWxlPSJzdHJva2U6IzAzODA0ODtzdHJva2Utd2lkdGg6MS4wOyIvPjx0ZXh0IGZpbGw9IiMwMDAwMDAiIGZvbnQtZmFtaWx5PSJzYW5zLXNlcmlmIiBmb250LXNpemU9IjE0IiBsZW5ndGhBZGp1c3Q9InNwYWNpbmciIHRleHRMZW5ndGg9IjI4IiB4PSI0MiIgeT0iMzA3LjIwMzEiPmlzYm48L3RleHQ+PGVsbGlwc2UgY3g9IjMzIiBjeT0iMzE3Ljk0NTMiIGZpbGw9Im5vbmUiIHJ4PSIzIiByeT0iMyIgc3R5bGU9InN0cm9rZTojMDM4MDQ4O3N0cm9rZS13aWR0aDoxLjA7Ii8+PHRleHQgZmlsbD0iIzAwMDAwMCIgZm9udC1mYW1pbHk9InNhbnMtc2VyaWYiIGZvbnQtc2l6ZT0iMTQiIGxlbmd0aEFkanVzdD0ic3BhY2luZyIgdGV4dExlbmd0aD0iODQiIHg9IjQyIiB5PSIzMjIuMTg3NSI+YXZhaWxhYmlsaXR5PC90ZXh0PjxsaW5lIHN0eWxlPSJzdHJva2U6IzE4MTgxODtzdHJva2Utd2lkdGg6MC41OyIgeDE9IjIzIiB4Mj0iMTMxIiB5MT0iMzI3LjkzNzUiIHkyPSIzMjcuOTM3NSIvPjwvZz48IS0tY2xhc3MgTWVtYmVyLS0+PGcgaWQ9ImVsZW1fTWVtYmVyIj48cmVjdCBjb2RlTGluZT0iMTkiIGZpbGw9IiNGMUYxRjEiIGhlaWdodD0iOTIuOTUzMSIgaWQ9Ik1lbWJlciIgcng9IjIuNSIgcnk9IjIuNSIgc3R5bGU9InN0cm9rZTojMTgxODE4O3N0cm9rZS13aWR0aDowLjU7IiB3aWR0aD0iMTEyIiB4PSIxODgiIHk9IjIzNS41Ii8+PGVsbGlwc2UgY3g9IjIxOS42NSIgY3k9IjI1MS41IiBmaWxsPSIjQUREMUIyIiByeD0iMTEiIHJ5PSIxMSIgc3R5bGU9InN0cm9rZTojMTgxODE4O3N0cm9rZS13aWR0aDoxLjA7Ii8+PHBhdGggZD0iTTIxNy4yNzUsMjU1Ljc1IEwyMTcuMjc1LDI1Ny41IEwyMjIuMjEyNSwyNTcuNSBMMjIyLjIxMjUsMjU1Ljc1IEwyMTcuMjc1LDI1NS43NSBaIE0yMTcuOTYyNSwyNTYuNDM3NSBRMjE3Ljk2MjUsMjU2LjQzNzUgMjE3Ljk2MjUsMjQ3LjI1IEwyMTYuMjEyNSwyNDcuMjUgUTIxNi4yMTI1LDI0Ny4yNSAyMTYuMjEyNSwyNTYuNDM3NSBMMjE3Ljk2MjUsMjU2LjQzNzUgWiBNMjIxLjUyNSwyNTYuNDM3NSBMMjIzLjI3NSwyNTYuNDM3NSBRMjIzLjI3NSwyNTYuNDM3NSAyMjMuMjc1LDI1My42MjUgTDIyMS41MjUsMjUzLjYyNSBRMjIxLjUyNSwyNTMuNjI1IDIyMS41MjUsMjU2LjQzNzUgWiBNMjIxLjUyNSwyNDcuMjUgUTIyMS41MjUsMjQ3LjI1IDIyMS41MjUsMjUwLjA2MjUgTDIyMy4yNzUsMjUwLjA2MjUgUTIyMy4yNzUsMjUwLjA2MjUgMjIzLjI3NSwyNDcuMjUgTDIyMS41MjUsMjQ3LjI1IFogTTIxNy4yNzUsMjQ3LjkzNzUgTDIyMi4yMTI1LDI0Ny45Mzc1IEwyMjIuMjEyNSwyNDYuMTg3NSBMMjE3LjI3NSwyNDYuMTg3NSBMMjE3LjI3NSwyNDcuOTM3NSBaICIgZmlsbD0iIzAwMDAwMCIvPjx0ZXh0IGZpbGw9IiMwMDAwMDAiIGZvbnQtZmFtaWx5PSJzYW5zLXNlcmlmIiBmb250LXNpemU9IjE0IiBsZW5ndGhBZGp1c3Q9InNwYWNpbmciIHRleHRMZW5ndGg9IjQzIiB4PSIyMzcuMzUiIHk9IjI1Ny4yNDIyIj5NZW1iZXI8L3RleHQ+PGxpbmUgc3R5bGU9InN0cm9rZTojMTgxODE4O3N0cm9rZS13aWR0aDowLjU7IiB4MT0iMTg5IiB4Mj0iMjk5IiB5MT0iMjY3LjUiIHkyPSIyNjcuNSIvPjxlbGxpcHNlIGN4PSIxOTkiIGN5PSIyODAuNDkyMiIgZmlsbD0ibm9uZSIgcng9IjMiIHJ5PSIzIiBzdHlsZT0ic3Ryb2tlOiMwMzgwNDg7c3Ryb2tlLXdpZHRoOjEuMDsiLz48dGV4dCBmaWxsPSIjMDAwMDAwIiBmb250LWZhbWlseT0ic2Fucy1zZXJpZiIgZm9udC1zaXplPSIxNCIgbGVuZ3RoQWRqdXN0PSJzcGFjaW5nIiB0ZXh0TGVuZ3RoPSIyOSIgeD0iMjA4IiB5PSIyODQuNzM0NCI+bmFtZTwvdGV4dD48ZWxsaXBzZSBjeD0iMTk5IiBjeT0iMjk1LjQ3NjYiIGZpbGw9Im5vbmUiIHJ4PSIzIiByeT0iMyIgc3R5bGU9InN0cm9rZTojMDM4MDQ4O3N0cm9rZS13aWR0aDoxLjA7Ii8+PHRleHQgZmlsbD0iIzAwMDAwMCIgZm9udC1mYW1pbHk9InNhbnMtc2VyaWYiIGZvbnQtc2l6ZT0iMTQiIGxlbmd0aEFkanVzdD0ic3BhY2luZyIgdGV4dExlbmd0aD0iODYiIHg9IjIwOCIgeT0iMjk5LjcxODgiPm1lbWJlcnNoaXBJRDwvdGV4dD48ZWxsaXBzZSBjeD0iMTk5IiBjeT0iMzEwLjQ2MDkiIGZpbGw9Im5vbmUiIHJ4PSIzIiByeT0iMyIgc3R5bGU9InN0cm9rZTojMDM4MDQ4O3N0cm9rZS13aWR0aDoxLjA7Ii8+PHRleHQgZmlsbD0iIzAwMDAwMCIgZm9udC1mYW1pbHk9InNhbnMtc2VyaWYiIGZvbnQtc2l6ZT0iMTQiIGxlbmd0aEFkanVzdD0ic3BhY2luZyIgdGV4dExlbmd0aD0iNDkiIHg9IjIwOCIgeT0iMzE0LjcwMzEiPmFkZHJlc3M8L3RleHQ+PGxpbmUgc3R5bGU9InN0cm9rZTojMTgxODE4O3N0cm9rZS13aWR0aDowLjU7IiB4MT0iMTg5IiB4Mj0iMjk5IiB5MT0iMzIwLjQ1MzEiIHkyPSIzMjAuNDUzMSIvPjwvZz48IS0tbGluayBCb3Jyb3dpbmcgdG8gQm9vay0tPjxnIGlkPSJsaW5rX0JvcnJvd2luZ19Cb29rIj48cGF0aCBjb2RlTGluZT0iMjYiIGQ9Ik0xMTMuNzUsMTMyLjEgQzEwNi42OCwxNjAuNzMgOTguOTc3OCwxOTEuOTU0OCA5MS41Nzc4LDIyMS45MzQ4ICIgZmlsbD0ibm9uZSIgaWQ9IkJvcnJvd2luZy10by1Cb29rIiBzdHlsZT0ic3Ryb2tlOiMxODE4MTg7c3Ryb2tlLXdpZHRoOjEuMDsiLz48cG9seWdvbiBmaWxsPSIjMTgxODE4IiBwb2ludHM9IjkwLjE0LDIyNy43Niw5Ni4xODAyLDIxOS45ODA4LDkxLjMzODIsMjIyLjkwNTcsODguNDEzMywyMTguMDYzNyw5MC4xNCwyMjcuNzYiIHN0eWxlPSJzdHJva2U6IzE4MTgxODtzdHJva2Utd2lkdGg6MS4wOyIvPjx0ZXh0IGZpbGw9IiMwMDAwMDAiIGZvbnQtZmFtaWx5PSJzYW5zLXNlcmlmIiBmb250LXNpemU9IjEzIiBsZW5ndGhBZGp1c3Q9InNwYWNpbmciIHRleHRMZW5ndGg9IjQ4IiB4PSIxMDciIHk9IjE3Ny4yODkxIj5ib3Jyb3dzPC90ZXh0PjwvZz48IS0tbGluayBCb3Jyb3dpbmcgdG8gTWVtYmVyLS0+PGcgaWQ9ImxpbmtfQm9ycm93aW5nX01lbWJlciI+PHBhdGggY29kZUxpbmU9IjI3IiBkPSJNMTUyLjksMTMyLjEgQzE3MS45MywxNjMuMiAxOTMuODk4NiwxOTkuMTExOSAyMTIuOTM4NiwyMzAuMjMxOSAiIGZpbGw9Im5vbmUiIGlkPSJCb3Jyb3dpbmctdG8tTWVtYmVyIiBzdHlsZT0ic3Ryb2tlOiMxODE4MTg7c3Ryb2tlLXdpZHRoOjEuMDsiLz48cG9seWdvbiBmaWxsPSIjMTgxODE4IiBwb2ludHM9IjIxNi4wNywyMzUuMzUsMjE0Ljc4NSwyMjUuNTg1MywyMTMuNDYwNSwyMzEuMDg0OSwyMDcuOTYwOSwyMjkuNzYwNSwyMTYuMDcsMjM1LjM1IiBzdHlsZT0ic3Ryb2tlOiMxODE4MTg7c3Ryb2tlLXdpZHRoOjEuMDsiLz48dGV4dCBmaWxsPSIjMDAwMDAwIiBmb250LWZhbWlseT0ic2Fucy1zZXJpZiIgZm9udC1zaXplPSIxMyIgbGVuZ3RoQWRqdXN0PSJzcGFjaW5nIiB0ZXh0TGVuZ3RoPSI1NCIgeD0iMTgxIiB5PSIxNzcuMjg5MSI+aW52b2x2ZXM8L3RleHQ+PC9nPjwhLS1TUkM9W05QMTEyaTkwMzROdEZLTU1ZbEcyQmJuS0tMb3V5V0pmRERKR3dNSjhKMmlZbFJsR2NROXM1cnhXX1B6dUQxc3MxNFRIV2RTMU8ybzYwOU1lb2ZEVEVwRTBOSnMzSWdKUlIxREhZZUV3TnNCR2NpNVlmM0N4Y2s1S0o0TlhTeUk1NzJjUmxuSmZiZTM4cUw4UVNPV0ZxSkhwZzVzYzh4QjVjWXQ3cnJmejd4bU5aS2xWUEJ6SE52Q2tWZVR6cmxTcDNtX3NyckRNRHVySTI4bHJVdG5QN2JCOUZRRzdYREtvUC1vMXRJWHNmRjAxXS0tPjwvZz48L3N2Zz4=;" vertex="1" parent="WIyWlLk6GJQsqaUBKTNV-1">
            <mxGeometry x="423" y="614" width="323" height="359" as="geometry" />
          </mxCell>
        </UserObject>
        <mxCell id="1NbmmqPmAqIWwFa_HTDq-1" value="" style="shape=folder;fontStyle=1;spacingTop=10;tabWidth=47;tabHeight=23;tabPosition=left;html=1;whiteSpace=wrap;" vertex="1" parent="WIyWlLk6GJQsqaUBKTNV-1">
          <mxGeometry x="890" y="673" width="211" height="163" as="geometry" />
        </mxCell>
        <mxCell id="1NbmmqPmAqIWwFa_HTDq-15" style="edgeStyle=orthogonalEdgeStyle;rounded=0;orthogonalLoop=1;jettySize=auto;html=1;entryX=0.5;entryY=0;entryDx=0;entryDy=0;endArrow=classic;endFill=1;endSize=13;" edge="1" parent="WIyWlLk6GJQsqaUBKTNV-1" source="1NbmmqPmAqIWwFa_HTDq-4" target="1NbmmqPmAqIWwFa_HTDq-10">
          <mxGeometry relative="1" as="geometry" />
        </mxCell>
        <mxCell id="1NbmmqPmAqIWwFa_HTDq-16" style="edgeStyle=orthogonalEdgeStyle;rounded=0;orthogonalLoop=1;jettySize=auto;html=1;entryX=0.5;entryY=0;entryDx=0;entryDy=0;endArrow=classic;endFill=1;endSize=13;" edge="1" parent="WIyWlLk6GJQsqaUBKTNV-1" source="1NbmmqPmAqIWwFa_HTDq-4" target="1NbmmqPmAqIWwFa_HTDq-13">
          <mxGeometry relative="1" as="geometry" />
        </mxCell>
        <mxCell id="1NbmmqPmAqIWwFa_HTDq-4" value="&lt;p style=&quot;margin:0px;margin-top:4px;text-align:center;&quot;&gt;&lt;b&gt;Borrowing&lt;/b&gt;&lt;br&gt;&lt;/p&gt;&lt;hr size=&quot;1&quot; style=&quot;border-style:solid;&quot;&gt;&lt;p style=&quot;margin:0px;margin-left:4px;&quot;&gt;&lt;br&gt;&lt;/p&gt;&lt;hr size=&quot;1&quot; style=&quot;border-style:solid;&quot;&gt;&lt;p style=&quot;margin:0px;margin-left:4px;&quot;&gt;&amp;nbsp;+borrowBook()&lt;/p&gt;&lt;p style=&quot;margin:0px;margin-left:4px;&quot;&gt;&amp;nbsp;+returnBook()&lt;/p&gt;&lt;p style=&quot;margin:0px;margin-left:4px;&quot;&gt;&amp;nbsp;+calculateFine()&lt;/p&gt;" style="verticalAlign=top;align=left;overflow=fill;html=1;whiteSpace=wrap;" vertex="1" parent="WIyWlLk6GJQsqaUBKTNV-1">
          <mxGeometry x="915" y="714" width="160" height="106" as="geometry" />
        </mxCell>
        <mxCell id="1NbmmqPmAqIWwFa_HTDq-5" value="Core" style="text;html=1;align=center;verticalAlign=middle;resizable=0;points=[];autosize=1;strokeColor=none;fillColor=none;" vertex="1" parent="WIyWlLk6GJQsqaUBKTNV-1">
          <mxGeometry x="890" y="671" width="44" height="26" as="geometry" />
        </mxCell>
        <mxCell id="1NbmmqPmAqIWwFa_HTDq-13" value="&lt;p style=&quot;margin:0px;margin-top:4px;text-align:center;&quot;&gt;&lt;b&gt;Member&lt;/b&gt;&lt;br&gt;&lt;/p&gt;&lt;hr size=&quot;1&quot; style=&quot;border-style:solid;&quot;&gt;&lt;p style=&quot;margin:0px;margin-left:4px;&quot;&gt;&amp;nbsp;&lt;span style=&quot;background-color: initial;&quot;&gt;+name&lt;/span&gt;&lt;br&gt;&lt;/p&gt;&lt;p style=&quot;margin:0px;margin-left:4px;&quot;&gt;&amp;nbsp;+membershipID&lt;/p&gt;&lt;p style=&quot;margin:0px;margin-left:4px;&quot;&gt;&amp;nbsp;+address&lt;/p&gt;&lt;hr size=&quot;1&quot; style=&quot;border-style:solid;&quot;&gt;&lt;p style=&quot;margin:0px;margin-left:4px;&quot;&gt;&lt;br&gt;&lt;/p&gt;" style="verticalAlign=top;align=left;overflow=fill;html=1;whiteSpace=wrap;" vertex="1" parent="WIyWlLk6GJQsqaUBKTNV-1">
          <mxGeometry x="1137" y="941" width="116" height="90.5" as="geometry" />
        </mxCell>
        <mxCell id="1NbmmqPmAqIWwFa_HTDq-14" value="Supporting" style="text;html=1;align=center;verticalAlign=middle;resizable=0;points=[];autosize=1;strokeColor=none;fillColor=none;" vertex="1" parent="WIyWlLk6GJQsqaUBKTNV-1">
          <mxGeometry x="1106" y="903" width="76" height="26" as="geometry" />
        </mxCell>
        <mxCell id="1NbmmqPmAqIWwFa_HTDq-18" value="borrows" style="text;html=1;align=center;verticalAlign=middle;resizable=0;points=[];autosize=1;strokeColor=none;fillColor=none;" vertex="1" parent="WIyWlLk6GJQsqaUBKTNV-1">
          <mxGeometry x="992" y="851" width="61" height="26" as="geometry" />
        </mxCell>
        <mxCell id="1NbmmqPmAqIWwFa_HTDq-19" value="involves" style="text;html=1;align=center;verticalAlign=middle;resizable=0;points=[];autosize=1;strokeColor=none;fillColor=none;" vertex="1" parent="WIyWlLk6GJQsqaUBKTNV-1">
          <mxGeometry x="1127" y="743" width="61" height="26" as="geometry" />
        </mxCell>
        <UserObject label="" plantUmlData="{&#xa;  &quot;data&quot;: &quot;@startuml\nclass Borrowing {\n    + borrowBook()\n    + returnBook()\n    + calculateFine()\n}\n\nclass Responsibilities {\n    borrowBook()\n    returnBook()\n    calculateFine()\n}\n\nclass Collaborators {\n    Book\n    Member\n}\n\nBorrowing -- Responsibilities : has\nBorrowing -- Collaborators : has\n@enduml\n&quot;,&#xa;  &quot;format&quot;: &quot;svg&quot;&#xa;}" id="1NbmmqPmAqIWwFa_HTDq-27">
          <mxCell style="shape=image;noLabel=1;verticalAlign=top;aspect=fixed;imageAspect=0;image=data:image/svg+xml,PD94bWwgdmVyc2lvbj0iMS4wIiBlbmNvZGluZz0idXMtYXNjaWkiIHN0YW5kYWxvbmU9Im5vIj8+PHN2ZyB4bWxucz0iaHR0cDovL3d3dy53My5vcmcvMjAwMC9zdmciIHhtbG5zOnhsaW5rPSJodHRwOi8vd3d3LnczLm9yZy8xOTk5L3hsaW5rIiBjb250ZW50U3R5bGVUeXBlPSJ0ZXh0L2NzcyIgaGVpZ2h0PSIyNzRweCIgcHJlc2VydmVBc3BlY3RSYXRpbz0ibm9uZSIgc3R5bGU9IndpZHRoOjMxNnB4O2hlaWdodDoyNzRweDtiYWNrZ3JvdW5kOiNGRkZGRkY7IiB2ZXJzaW9uPSIxLjEiIHZpZXdCb3g9IjAgMCAzMTYgMjc0IiB3aWR0aD0iMzE2cHgiIHpvb21BbmRQYW49Im1hZ25pZnkiPjxkZWZzLz48Zz48IS0tY2xhc3MgQm9ycm93aW5nLS0+PGcgaWQ9ImVsZW1fQm9ycm93aW5nIj48cmVjdCBjb2RlTGluZT0iMSIgZmlsbD0iI0YxRjFGMSIgaGVpZ2h0PSI5Mi45NTMxIiBpZD0iQm9ycm93aW5nIiByeD0iMi41IiByeT0iMi41IiBzdHlsZT0ic3Ryb2tlOiMxODE4MTg7c3Ryb2tlLXdpZHRoOjAuNTsiIHdpZHRoPSIxMzMiIHg9Ijk2LjUiIHk9IjciLz48ZWxsaXBzZSBjeD0iMTI4LjE1IiBjeT0iMjMiIGZpbGw9IiNBREQxQjIiIHJ4PSIxMSIgcnk9IjExIiBzdHlsZT0ic3Ryb2tlOiMxODE4MTg7c3Ryb2tlLXdpZHRoOjEuMDsiLz48cGF0aCBkPSJNMTI1Ljc3NSwyNy4yNSBMMTI1Ljc3NSwyOSBMMTMwLjcxMjUsMjkgTDEzMC43MTI1LDI3LjI1IEwxMjUuNzc1LDI3LjI1IFogTTEyNi40NjI1LDI3LjkzNzUgUTEyNi40NjI1LDI3LjkzNzUgMTI2LjQ2MjUsMTguNzUgTDEyNC43MTI1LDE4Ljc1IFExMjQuNzEyNSwxOC43NSAxMjQuNzEyNSwyNy45Mzc1IEwxMjYuNDYyNSwyNy45Mzc1IFogTTEzMC4wMjUsMjcuOTM3NSBMMTMxLjc3NSwyNy45Mzc1IFExMzEuNzc1LDI3LjkzNzUgMTMxLjc3NSwyNS4xMjUgTDEzMC4wMjUsMjUuMTI1IFExMzAuMDI1LDI1LjEyNSAxMzAuMDI1LDI3LjkzNzUgWiBNMTMwLjAyNSwxOC43NSBRMTMwLjAyNSwxOC43NSAxMzAuMDI1LDIxLjU2MjUgTDEzMS43NzUsMjEuNTYyNSBRMTMxLjc3NSwyMS41NjI1IDEzMS43NzUsMTguNzUgTDEzMC4wMjUsMTguNzUgWiBNMTI1Ljc3NSwxOS40Mzc1IEwxMzAuNzEyNSwxOS40Mzc1IEwxMzAuNzEyNSwxNy42ODc1IEwxMjUuNzc1LDE3LjY4NzUgTDEyNS43NzUsMTkuNDM3NSBaICIgZmlsbD0iIzAwMDAwMCIvPjx0ZXh0IGZpbGw9IiMwMDAwMDAiIGZvbnQtZmFtaWx5PSJzYW5zLXNlcmlmIiBmb250LXNpemU9IjE0IiBsZW5ndGhBZGp1c3Q9InNwYWNpbmciIHRleHRMZW5ndGg9IjY0IiB4PSIxNDUuODUiIHk9IjI4Ljc0MjIiPkJvcnJvd2luZzwvdGV4dD48bGluZSBzdHlsZT0ic3Ryb2tlOiMxODE4MTg7c3Ryb2tlLXdpZHRoOjAuNTsiIHgxPSI5Ny41IiB4Mj0iMjI4LjUiIHkxPSIzOSIgeTI9IjM5Ii8+PGxpbmUgc3R5bGU9InN0cm9rZTojMTgxODE4O3N0cm9rZS13aWR0aDowLjU7IiB4MT0iOTcuNSIgeDI9IjIyOC41IiB5MT0iNDciIHkyPSI0NyIvPjxlbGxpcHNlIGN4PSIxMDcuNSIgY3k9IjU5Ljk5MjIiIGZpbGw9IiM4NEJFODQiIHJ4PSIzIiByeT0iMyIgc3R5bGU9InN0cm9rZTojMDM4MDQ4O3N0cm9rZS13aWR0aDoxLjA7Ii8+PHRleHQgZmlsbD0iIzAwMDAwMCIgZm9udC1mYW1pbHk9InNhbnMtc2VyaWYiIGZvbnQtc2l6ZT0iMTQiIGxlbmd0aEFkanVzdD0ic3BhY2luZyIgdGV4dExlbmd0aD0iODciIHg9IjExNi41IiB5PSI2NC4yMzQ0Ij5ib3Jyb3dCb29rKCk8L3RleHQ+PGVsbGlwc2UgY3g9IjEwNy41IiBjeT0iNzQuOTc2NiIgZmlsbD0iIzg0QkU4NCIgcng9IjMiIHJ5PSIzIiBzdHlsZT0ic3Ryb2tlOiMwMzgwNDg7c3Ryb2tlLXdpZHRoOjEuMDsiLz48dGV4dCBmaWxsPSIjMDAwMDAwIiBmb250LWZhbWlseT0ic2Fucy1zZXJpZiIgZm9udC1zaXplPSIxNCIgbGVuZ3RoQWRqdXN0PSJzcGFjaW5nIiB0ZXh0TGVuZ3RoPSI4NiIgeD0iMTE2LjUiIHk9Ijc5LjIxODgiPnJldHVybkJvb2soKTwvdGV4dD48ZWxsaXBzZSBjeD0iMTA3LjUiIGN5PSI4OS45NjA5IiBmaWxsPSIjODRCRTg0IiByeD0iMyIgcnk9IjMiIHN0eWxlPSJzdHJva2U6IzAzODA0ODtzdHJva2Utd2lkdGg6MS4wOyIvPjx0ZXh0IGZpbGw9IiMwMDAwMDAiIGZvbnQtZmFtaWx5PSJzYW5zLXNlcmlmIiBmb250LXNpemU9IjE0IiBsZW5ndGhBZGp1c3Q9InNwYWNpbmciIHRleHRMZW5ndGg9IjEwNyIgeD0iMTE2LjUiIHk9Ijk0LjIwMzEiPmNhbGN1bGF0ZUZpbmUoKTwvdGV4dD48L2c+PCEtLWNsYXNzIFJlc3BvbnNpYmlsaXRpZXMtLT48ZyBpZD0iZWxlbV9SZXNwb25zaWJpbGl0aWVzIj48cmVjdCBjb2RlTGluZT0iNyIgZmlsbD0iI0YxRjFGMSIgaGVpZ2h0PSI5Mi45NTMxIiBpZD0iUmVzcG9uc2liaWxpdGllcyIgcng9IjIuNSIgcnk9IjIuNSIgc3R5bGU9InN0cm9rZTojMTgxODE4O3N0cm9rZS13aWR0aDowLjU7IiB3aWR0aD0iMTQ0IiB4PSI3IiB5PSIxNzUiLz48ZWxsaXBzZSBjeD0iMjIiIGN5PSIxOTEiIGZpbGw9IiNBREQxQjIiIHJ4PSIxMSIgcnk9IjExIiBzdHlsZT0ic3Ryb2tlOiMxODE4MTg7c3Ryb2tlLXdpZHRoOjEuMDsiLz48cGF0aCBkPSJNMTkuNjI1LDE5NS4yNSBMMTkuNjI1LDE5NyBMMjQuNTYyNSwxOTcgTDI0LjU2MjUsMTk1LjI1IEwxOS42MjUsMTk1LjI1IFogTTIwLjMxMjUsMTk1LjkzNzUgUTIwLjMxMjUsMTk1LjkzNzUgMjAuMzEyNSwxODYuNzUgTDE4LjU2MjUsMTg2Ljc1IFExOC41NjI1LDE4Ni43NSAxOC41NjI1LDE5NS45Mzc1IEwyMC4zMTI1LDE5NS45Mzc1IFogTTIzLjg3NSwxOTUuOTM3NSBMMjUuNjI1LDE5NS45Mzc1IFEyNS42MjUsMTk1LjkzNzUgMjUuNjI1LDE5My4xMjUgTDIzLjg3NSwxOTMuMTI1IFEyMy44NzUsMTkzLjEyNSAyMy44NzUsMTk1LjkzNzUgWiBNMjMuODc1LDE4Ni43NSBRMjMuODc1LDE4Ni43NSAyMy44NzUsMTg5LjU2MjUgTDI1LjYyNSwxODkuNTYyNSBRMjUuNjI1LDE4OS41NjI1IDI1LjYyNSwxODYuNzUgTDIzLjg3NSwxODYuNzUgWiBNMTkuNjI1LDE4Ny40Mzc1IEwyNC41NjI1LDE4Ny40Mzc1IEwyNC41NjI1LDE4NS42ODc1IEwxOS42MjUsMTg1LjY4NzUgTDE5LjYyNSwxODcuNDM3NSBaICIgZmlsbD0iIzAwMDAwMCIvPjx0ZXh0IGZpbGw9IiMwMDAwMDAiIGZvbnQtZmFtaWx5PSJzYW5zLXNlcmlmIiBmb250LXNpemU9IjE0IiBsZW5ndGhBZGp1c3Q9InNwYWNpbmciIHRleHRMZW5ndGg9IjExMiIgeD0iMzYiIHk9IjE5Ni43NDIyIj5SZXNwb25zaWJpbGl0aWVzPC90ZXh0PjxsaW5lIHN0eWxlPSJzdHJva2U6IzE4MTgxODtzdHJva2Utd2lkdGg6MC41OyIgeDE9IjgiIHgyPSIxNTAiIHkxPSIyMDciIHkyPSIyMDciLz48bGluZSBzdHlsZT0ic3Ryb2tlOiMxODE4MTg7c3Ryb2tlLXdpZHRoOjAuNTsiIHgxPSI4IiB4Mj0iMTUwIiB5MT0iMjE1IiB5Mj0iMjE1Ii8+PHRleHQgZmlsbD0iIzAwMDAwMCIgZm9udC1mYW1pbHk9InNhbnMtc2VyaWYiIGZvbnQtc2l6ZT0iMTQiIGxlbmd0aEFkanVzdD0ic3BhY2luZyIgdGV4dExlbmd0aD0iODciIHg9IjEzIiB5PSIyMzIuMjM0NCI+Ym9ycm93Qm9vaygpPC90ZXh0Pjx0ZXh0IGZpbGw9IiMwMDAwMDAiIGZvbnQtZmFtaWx5PSJzYW5zLXNlcmlmIiBmb250LXNpemU9IjE0IiBsZW5ndGhBZGp1c3Q9InNwYWNpbmciIHRleHRMZW5ndGg9Ijg2IiB4PSIxMyIgeT0iMjQ3LjIxODgiPnJldHVybkJvb2soKTwvdGV4dD48dGV4dCBmaWxsPSIjMDAwMDAwIiBmb250LWZhbWlseT0ic2Fucy1zZXJpZiIgZm9udC1zaXplPSIxNCIgbGVuZ3RoQWRqdXN0PSJzcGFjaW5nIiB0ZXh0TGVuZ3RoPSIxMDciIHg9IjEzIiB5PSIyNjIuMjAzMSI+Y2FsY3VsYXRlRmluZSgpPC90ZXh0PjwvZz48IS0tY2xhc3MgQ29sbGFib3JhdG9ycy0tPjxnIGlkPSJlbGVtX0NvbGxhYm9yYXRvcnMiPjxyZWN0IGNvZGVMaW5lPSIxMyIgZmlsbD0iI0YxRjFGMSIgaGVpZ2h0PSI3Ny45Njg4IiBpZD0iQ29sbGFib3JhdG9ycyIgcng9IjIuNSIgcnk9IjIuNSIgc3R5bGU9InN0cm9rZTojMTgxODE4O3N0cm9rZS13aWR0aDowLjU7IiB3aWR0aD0iMTIzIiB4PSIxODYuNSIgeT0iMTgyLjUiLz48ZWxsaXBzZSBjeD0iMjAxLjUiIGN5PSIxOTguNSIgZmlsbD0iI0FERDFCMiIgcng9IjExIiByeT0iMTEiIHN0eWxlPSJzdHJva2U6IzE4MTgxODtzdHJva2Utd2lkdGg6MS4wOyIvPjxwYXRoIGQ9Ik0xOTkuMTI1LDIwMi43NSBMMTk5LjEyNSwyMDQuNSBMMjA0LjA2MjUsMjA0LjUgTDIwNC4wNjI1LDIwMi43NSBMMTk5LjEyNSwyMDIuNzUgWiBNMTk5LjgxMjUsMjAzLjQzNzUgUTE5OS44MTI1LDIwMy40Mzc1IDE5OS44MTI1LDE5NC4yNSBMMTk4LjA2MjUsMTk0LjI1IFExOTguMDYyNSwxOTQuMjUgMTk4LjA2MjUsMjAzLjQzNzUgTDE5OS44MTI1LDIwMy40Mzc1IFogTTIwMy4zNzUsMjAzLjQzNzUgTDIwNS4xMjUsMjAzLjQzNzUgUTIwNS4xMjUsMjAzLjQzNzUgMjA1LjEyNSwyMDAuNjI1IEwyMDMuMzc1LDIwMC42MjUgUTIwMy4zNzUsMjAwLjYyNSAyMDMuMzc1LDIwMy40Mzc1IFogTTIwMy4zNzUsMTk0LjI1IFEyMDMuMzc1LDE5NC4yNSAyMDMuMzc1LDE5Ny4wNjI1IEwyMDUuMTI1LDE5Ny4wNjI1IFEyMDUuMTI1LDE5Ny4wNjI1IDIwNS4xMjUsMTk0LjI1IEwyMDMuMzc1LDE5NC4yNSBaIE0xOTkuMTI1LDE5NC45Mzc1IEwyMDQuMDYyNSwxOTQuOTM3NSBMMjA0LjA2MjUsMTkzLjE4NzUgTDE5OS4xMjUsMTkzLjE4NzUgTDE5OS4xMjUsMTk0LjkzNzUgWiAiIGZpbGw9IiMwMDAwMDAiLz48dGV4dCBmaWxsPSIjMDAwMDAwIiBmb250LWZhbWlseT0ic2Fucy1zZXJpZiIgZm9udC1zaXplPSIxNCIgbGVuZ3RoQWRqdXN0PSJzcGFjaW5nIiB0ZXh0TGVuZ3RoPSI5MSIgeD0iMjE1LjUiIHk9IjIwNC4yNDIyIj5Db2xsYWJvcmF0b3JzPC90ZXh0PjxsaW5lIHN0eWxlPSJzdHJva2U6IzE4MTgxODtzdHJva2Utd2lkdGg6MC41OyIgeDE9IjE4Ny41IiB4Mj0iMzA4LjUiIHkxPSIyMTQuNSIgeTI9IjIxNC41Ii8+PHRleHQgZmlsbD0iIzAwMDAwMCIgZm9udC1mYW1pbHk9InNhbnMtc2VyaWYiIGZvbnQtc2l6ZT0iMTQiIGxlbmd0aEFkanVzdD0ic3BhY2luZyIgdGV4dExlbmd0aD0iMjgiIHg9IjE5Mi41IiB5PSIyMzEuNzM0NCI+Qm9vazwvdGV4dD48dGV4dCBmaWxsPSIjMDAwMDAwIiBmb250LWZhbWlseT0ic2Fucy1zZXJpZiIgZm9udC1zaXplPSIxNCIgbGVuZ3RoQWRqdXN0PSJzcGFjaW5nIiB0ZXh0TGVuZ3RoPSI0MyIgeD0iMTkyLjUiIHk9IjI0Ni43MTg4Ij5NZW1iZXI8L3RleHQ+PGxpbmUgc3R5bGU9InN0cm9rZTojMTgxODE4O3N0cm9rZS13aWR0aDowLjU7IiB4MT0iMTg3LjUiIHgyPSIzMDguNSIgeTE9IjI1Mi40Njg4IiB5Mj0iMjUyLjQ2ODgiLz48L2c+PCEtLWxpbmsgQm9ycm93aW5nIHRvIFJlc3BvbnNpYmlsaXRpZXMtLT48ZyBpZD0ibGlua19Cb3Jyb3dpbmdfUmVzcG9uc2liaWxpdGllcyI+PHBhdGggY29kZUxpbmU9IjE4IiBkPSJNMTM5LjgyLDEwMC4zIEMxMjguMDcsMTIzLjUyIDExMy44NCwxNTEuNjUgMTAyLjEsMTc0Ljg1ICIgZmlsbD0ibm9uZSIgaWQ9IkJvcnJvd2luZy1SZXNwb25zaWJpbGl0aWVzIiBzdHlsZT0ic3Ryb2tlOiMxODE4MTg7c3Ryb2tlLXdpZHRoOjEuMDsiLz48dGV4dCBmaWxsPSIjMDAwMDAwIiBmb250LWZhbWlseT0ic2Fucy1zZXJpZiIgZm9udC1zaXplPSIxMyIgbGVuZ3RoQWRqdXN0PSJzcGFjaW5nIiB0ZXh0TGVuZ3RoPSIyMSIgeD0iMTI1IiB5PSIxNDMuMjg5MSI+aGFzPC90ZXh0PjwvZz48IS0tbGluayBCb3Jyb3dpbmcgdG8gQ29sbGFib3JhdG9ycy0tPjxnIGlkPSJsaW5rX0JvcnJvd2luZ19Db2xsYWJvcmF0b3JzIj48cGF0aCBjb2RlTGluZT0iMTkiIGQ9Ik0xODYuNDUsMTAwLjMgQzE5OS42NywxMjYuMTEgMjE1Ljk5LDE1Ny45OCAyMjguNSwxODIuNDIgIiBmaWxsPSJub25lIiBpZD0iQm9ycm93aW5nLUNvbGxhYm9yYXRvcnMiIHN0eWxlPSJzdHJva2U6IzE4MTgxODtzdHJva2Utd2lkdGg6MS4wOyIvPjx0ZXh0IGZpbGw9IiMwMDAwMDAiIGZvbnQtZmFtaWx5PSJzYW5zLXNlcmlmIiBmb250LXNpemU9IjEzIiBsZW5ndGhBZGp1c3Q9InNwYWNpbmciIHRleHRMZW5ndGg9IjIxIiB4PSIyMDkiIHk9IjE0My4yODkxIj5oYXM8L3RleHQ+PC9nPjwhLS1TUkM9W1RPejEyVzhuMzROdEZLTU5ZaW01Tjh4V3BlcXRJNGtPMlNQNmFXdWtuQmxSQUlESVliYzVuXy1GOTNBTy1MNUt2S2JmeVlfZG9ubnlnNkdLa1V0czZyQkNZd082SFUydUM2R3lLeTkydHl4NUFob1lGSUdQMU1CQVhCUHZFc2xkXzZpeTJKRUtGY0pIaHN4anJVTTJ6dTJ3WGQtVjM0RF9uVDdGTzZzY3pUUjAxbTAwXS0tPjwvZz48L3N2Zz4=;" vertex="1" parent="WIyWlLk6GJQsqaUBKTNV-1">
            <mxGeometry x="325" y="1424" width="316" height="274" as="geometry" />
          </mxCell>
        </UserObject>
        <mxCell id="1NbmmqPmAqIWwFa_HTDq-34" style="edgeStyle=orthogonalEdgeStyle;rounded=0;orthogonalLoop=1;jettySize=auto;html=1;entryX=0.5;entryY=0;entryDx=0;entryDy=0;endArrow=none;endFill=0;endSize=13;exitX=0.25;exitY=1;exitDx=0;exitDy=0;" edge="1" parent="WIyWlLk6GJQsqaUBKTNV-1" source="1NbmmqPmAqIWwFa_HTDq-36" target="1NbmmqPmAqIWwFa_HTDq-31">
          <mxGeometry relative="1" as="geometry" />
        </mxCell>
        <mxCell id="1NbmmqPmAqIWwFa_HTDq-35" style="edgeStyle=orthogonalEdgeStyle;rounded=0;orthogonalLoop=1;jettySize=auto;html=1;entryX=0.5;entryY=0;entryDx=0;entryDy=0;endArrow=none;endFill=0;endSize=13;exitX=0.75;exitY=1;exitDx=0;exitDy=0;" edge="1" parent="WIyWlLk6GJQsqaUBKTNV-1" source="1NbmmqPmAqIWwFa_HTDq-36" target="1NbmmqPmAqIWwFa_HTDq-38">
          <mxGeometry relative="1" as="geometry" />
        </mxCell>
        <mxCell id="1NbmmqPmAqIWwFa_HTDq-36" value="&lt;p style=&quot;margin:0px;margin-top:4px;text-align:center;&quot;&gt;&lt;b&gt;Borrowing&lt;/b&gt;&lt;br&gt;&lt;/p&gt;&lt;hr size=&quot;1&quot; style=&quot;border-style:solid;&quot;&gt;&lt;p style=&quot;margin:0px;margin-left:4px;&quot;&gt;&lt;br&gt;&lt;/p&gt;&lt;hr size=&quot;1&quot; style=&quot;border-style:solid;&quot;&gt;&lt;p style=&quot;margin:0px;margin-left:4px;&quot;&gt;&amp;nbsp;+borrowBook()&lt;/p&gt;&lt;p style=&quot;margin:0px;margin-left:4px;&quot;&gt;&amp;nbsp;+returnBook()&lt;/p&gt;&lt;p style=&quot;margin:0px;margin-left:4px;&quot;&gt;&amp;nbsp;+calculateFine()&lt;/p&gt;" style="verticalAlign=top;align=left;overflow=fill;html=1;whiteSpace=wrap;" vertex="1" parent="WIyWlLk6GJQsqaUBKTNV-1">
          <mxGeometry x="838" y="1389" width="160" height="106" as="geometry" />
        </mxCell>
        <mxCell id="1NbmmqPmAqIWwFa_HTDq-38" value="&lt;p style=&quot;margin:0px;margin-top:4px;text-align:center;&quot;&gt;&lt;b&gt;Collaborators&amp;nbsp;&lt;/b&gt;&lt;br&gt;&lt;/p&gt;&lt;hr size=&quot;1&quot; style=&quot;border-style:solid;&quot;&gt;&lt;p style=&quot;margin:0px;margin-left:4px;&quot;&gt;&amp;nbsp;&lt;span style=&quot;background-color: initial;&quot;&gt;&amp;nbsp;Book&lt;/span&gt;&lt;/p&gt;&lt;p style=&quot;margin:0px;margin-left:4px;&quot;&gt;&amp;nbsp; Member&lt;/p&gt;&lt;hr size=&quot;1&quot; style=&quot;border-style:solid;&quot;&gt;&lt;p style=&quot;margin:0px;margin-left:4px;&quot;&gt;&lt;br&gt;&lt;/p&gt;" style="verticalAlign=top;align=left;overflow=fill;html=1;whiteSpace=wrap;" vertex="1" parent="WIyWlLk6GJQsqaUBKTNV-1">
          <mxGeometry x="939" y="1574" width="139" height="77" as="geometry" />
        </mxCell>
        <mxCell id="1NbmmqPmAqIWwFa_HTDq-40" value="has" style="text;html=1;align=center;verticalAlign=middle;resizable=0;points=[];autosize=1;strokeColor=none;fillColor=none;" vertex="1" parent="WIyWlLk6GJQsqaUBKTNV-1">
          <mxGeometry x="813" y="1507" width="37" height="26" as="geometry" />
        </mxCell>
        <mxCell id="1NbmmqPmAqIWwFa_HTDq-41" value="has" style="text;html=1;align=center;verticalAlign=middle;resizable=0;points=[];autosize=1;strokeColor=none;fillColor=none;" vertex="1" parent="WIyWlLk6GJQsqaUBKTNV-1">
          <mxGeometry x="977" y="1507" width="37" height="26" as="geometry" />
        </mxCell>
        <mxCell id="1NbmmqPmAqIWwFa_HTDq-31" value="&lt;p style=&quot;margin:0px;margin-top:4px;text-align:center;&quot;&gt;&lt;b&gt;Responsibilities&amp;nbsp;&lt;/b&gt;&lt;br&gt;&lt;/p&gt;&lt;hr size=&quot;1&quot; style=&quot;border-style:solid;&quot;&gt;&lt;p style=&quot;margin:0px;margin-left:4px;&quot;&gt;&amp;nbsp;&lt;br&gt;&lt;/p&gt;&lt;hr size=&quot;1&quot; style=&quot;border-style:solid;&quot;&gt;&lt;p style=&quot;margin:0px;margin-left:4px;&quot;&gt;&amp;nbsp;borrowBook()&lt;/p&gt;&lt;p style=&quot;margin:0px;margin-left:4px;&quot;&gt;&amp;nbsp;returnBook()&lt;/p&gt;&lt;p style=&quot;margin:0px;margin-left:4px;&quot;&gt;&amp;nbsp;calculateFine()&lt;/p&gt;" style="verticalAlign=top;align=left;overflow=fill;html=1;whiteSpace=wrap;" vertex="1" parent="WIyWlLk6GJQsqaUBKTNV-1">
          <mxGeometry x="748" y="1574" width="147" height="109" as="geometry" />
        </mxCell>
      </root>
    </mxGraphModel>
  </diagram>
</mxfile>
